<?xml version="1.0" encoding="utf-8"?>
<!-- Generator: Adobe Illustrator 19.2.1, SVG Export Plug-In . SVG Version: 6.00 Build 0)  -->
<svg version="1.1" id="Layer_1" xmlns="http://www.w3.org/2000/svg" xmlns:xlink="http://www.w3.org/1999/xlink" x="0px" y="0px"
     viewBox="0 0 22 17" style="enable-background:new 0 0 22 17;" xml:space="preserve">
<style type="text/css">
    .st0{fill:#FFFFFF;}
</style>
<title>FICTIVE KIN</title>
<desc>Created with Sketch.</desc>
<g id="Page-1">
    <g id="Artboard-1-Copy-13" transform="translate(-77.000000, -24.000000)">
        <path id="FICTIVE-KIN" class="st0" d="M80.1-1.2c0,0.1,0,0.2-0.1,0.3s-0.2,0.1-0.3,0.1h-2.2c-0.1,0-0.2,0-0.3-0.1
            s-0.1-0.2-0.1-0.3v-14.5c0-0.1,0-0.2,0.1-0.3s0.2-0.1,0.3-0.1h7.7c0.1,0,0.2,0,0.3,0.1c0.1,0.1,0.1,0.2,0.1,0.3v2.2
            c0,0.1,0,0.2-0.1,0.3s-0.2,0.1-0.3,0.1h-4.8c-0.1,0-0.2,0.1-0.2,0.2v2.6c0,0.1,0.1,0.2,0.2,0.2H85c0.1,0,0.2,0,0.3,0.1
            c0.1,0.1,0.1,0.2,0.1,0.3v2.2c0,0.1,0,0.2-0.1,0.3S85.1-6.9,85-6.9h-4.6c-0.1,0-0.2,0.1-0.2,0.2v5.5H80.1z M91.5-13
            c0-0.1-0.1-0.2-0.2-0.2H89c-0.1,0-0.2,0-0.3-0.1c-0.1-0.1-0.1-0.2-0.1-0.3v-2.1c0-0.1,0-0.2,0.1-0.3c0.1-0.1,0.2-0.1,0.3-0.1h8
            c0.1,0,0.2,0,0.3,0.1c0.1,0.1,0.1,0.2,0.1,0.3v2.1c0,0.1,0,0.2-0.1,0.3s-0.2,0.1-0.3,0.1h-2.2c-0.1,0-0.2,0.1-0.2,0.2v9
            c0,0.1,0.1,0.2,0.2,0.2h2.4c0.1,0,0.2,0,0.3,0.1c0.1,0.1,0.1,0.2,0.1,0.3v2.1c0,0.1,0,0.2-0.1,0.3c-0.1,0.1-0.2,0.1-0.3,0.1h-8.4
            c-0.1,0-0.2,0-0.3-0.1c-0.1-0.1-0.1-0.2-0.1-0.3v-2.1c0-0.1,0-0.2,0.1-0.3s0.2-0.1,0.3-0.1h2.4c0.1,0,0.2-0.1,0.2-0.2L91.5-13
            L91.5-13z M105.2-3.6c0.6,0,1.1-0.2,1.5-0.5c0.4-0.4,0.6-0.8,0.6-1.4c0-0.1,0.1-0.2,0.1-0.3s0.2-0.1,0.3-0.1h2.2
            c0.1,0,0.2,0,0.3,0.1s0.1,0.2,0.1,0.3c0,0.7-0.1,1.4-0.4,2s-0.6,1.1-1.1,1.6c-0.5,0.4-1,0.8-1.7,1c-0.6,0.2-1.3,0.4-2.1,0.4
            c-0.8,0-1.4-0.1-2.1-0.4c-0.6-0.3-1.1-0.6-1.6-1.1c-0.4-0.4-0.8-1-1.1-1.6c-0.3-0.6-0.4-1.2-0.5-1.9C99.6-6,99.6-6.4,99.6-7
            c0-0.5,0-1.1,0-1.6s0-1.1,0-1.6s0.1-1,0.1-1.5c0.1-0.7,0.2-1.3,0.5-1.9c0.3-0.6,0.6-1.1,1.1-1.6c0.4-0.4,1-0.8,1.6-1.1
            c0.6-0.3,1.3-0.4,2.1-0.4c0.8,0,1.5,0.1,2.1,0.4c0.6,0.2,1.2,0.6,1.7,1s0.8,1,1.1,1.6s0.4,1.3,0.4,2c0,0.1,0,0.2-0.1,0.3
            s-0.2,0.1-0.3,0.1h-2.2c-0.1,0-0.2,0-0.3-0.1c-0.1-0.1-0.1-0.2-0.1-0.3c0-0.6-0.3-1-0.6-1.4c-0.4-0.4-0.9-0.5-1.5-0.5
            c-0.7,0-1.2,0.2-1.5,0.5s-0.5,0.8-0.6,1.2c-0.1,0.5-0.1,1-0.1,1.5s0,1.1,0,1.6s0,1.1,0,1.6s0.1,1,0.1,1.5c0.1,0.5,0.3,0.9,0.6,1.2
            C104-3.8,104.5-3.6,105.2-3.6L105.2-3.6z M112.4-13.1c-0.1,0-0.2,0-0.3-0.1c-0.1-0.1-0.1-0.2-0.1-0.3v-2.2c0-0.1,0-0.2,0.1-0.3
            c0.1-0.1,0.2-0.1,0.3-0.1h9.5c0.1,0,0.2,0,0.3,0.1c0.1,0.1,0.1,0.2,0.1,0.3v2.2c0,0.1,0,0.2-0.1,0.3s-0.2,0.1-0.3,0.1h-3
            c-0.1,0-0.2,0.1-0.2,0.2v11.7c0,0.1,0,0.2-0.1,0.3s-0.2,0.1-0.3,0.1h-2.2c-0.1,0-0.2,0-0.3-0.1c-0.1-0.1-0.1-0.2-0.1-0.3v-11.7
            c0-0.1-0.1-0.2-0.2-0.2C115.5-13.1,112.4-13.1,112.4-13.1z M127.8-13c0-0.1-0.1-0.2-0.2-0.2h-2.2c-0.1,0-0.2,0-0.3-0.1
            c-0.1-0.1-0.1-0.2-0.1-0.3v-2.1c0-0.1,0-0.2,0.1-0.3c0.1-0.1,0.2-0.1,0.3-0.1h7.9c0.1,0,0.2,0,0.3,0.1s0.1,0.2,0.1,0.3v2.1
            c0,0.1,0,0.2-0.1,0.3s-0.2,0.1-0.3,0.1h-2.2c-0.1,0-0.2,0.1-0.2,0.2v9c0,0.1,0.1,0.2,0.2,0.2h2.4c0.1,0,0.2,0,0.3,0.1
            s0.1,0.2,0.1,0.3v2.1c0,0.1,0,0.2-0.1,0.3c-0.1,0.1-0.2,0.1-0.3,0.1h-8.4c-0.1,0-0.2,0-0.3-0.1c-0.1-0.1-0.1-0.2-0.1-0.3v-2.1
            c0-0.1,0-0.2,0.1-0.3s0.2-0.1,0.3-0.1h2.4c0.1,0,0.2-0.1,0.2-0.2v-9H127.8z M144-15.9c0-0.2,0.2-0.3,0.4-0.3h2.4
            c0.2,0,0.3,0.1,0.4,0.2c0.1,0.1,0.1,0.2,0.1,0.4l-3.8,14.5c-0.1,0.2-0.2,0.3-0.4,0.3h-3.3c-0.2,0-0.4-0.1-0.4-0.3l-3.8-14.5
            c0-0.1,0-0.2,0.1-0.4c0.1-0.1,0.2-0.2,0.4-0.2h2.4c0.2,0,0.4,0.1,0.4,0.3l2.4,10.3c0,0.1,0.1,0.2,0.2,0.2h0.1
            c0.1,0,0.1-0.1,0.2-0.2L144-15.9z M152.1-10.2c0,0.1,0.1,0.2,0.2,0.2h4.9c0.1,0,0.2,0,0.3,0.1s0.1,0.2,0.1,0.3v2.2
            c0,0.1,0,0.2-0.1,0.3C157.4-7,157.3-7,157.2-7h-4.9c-0.1,0-0.2,0.1-0.2,0.2v2.6c0,0.1,0.1,0.2,0.2,0.2h5.2c0.1,0,0.2,0,0.3,0.1
            s0.1,0.2,0.1,0.3v2.2c0,0.1,0,0.2-0.1,0.3S157.6-1,157.5-1h-8.1c-0.1,0-0.2,0-0.3-0.1s-0.1,0-0.1-0.1v-14.5c0-0.1,0-0.2,0.1-0.3
            s0.2-0.1,0.3-0.1h8c0.1,0,0.2,0,0.3,0.1s0.1,0.2,0.1,0.3v2.2c0,0.1,0,0.2-0.1,0.3s-0.2,0.1-0.3,0.1h-5.1c-0.1,0-0.2,0.1-0.2,0.2
            V-10.2z M179.8-16l0.1-0.1c0.1-0.1,0.2-0.1,0.3-0.1h2.2c0.2,0,0.3,0.1,0.4,0.3c0.1,0.2,0.1,0.4-0.1,0.5l-4.1,6.1
            c-0.1,0.1-0.2,0.3-0.1,0.4c0,0.1,0.1,0.2,0.1,0.4l4.5,7c0.1,0.2,0.1,0.3,0,0.5s-0.2,0.3-0.5,0.3h-2.4c-0.2,0-0.3,0-0.4-0.1
            s0.2-0.2,0.1-0.3l-3.8-6L176-7.2c0,0,0,0.1,0,0.2v5.8c0,0.1,0,0.2-0.1,0.3s-0.2,0.1-0.3,0.1h-2.2c-0.1,0-0.2,0-0.3-0.1
            S173-1.1,173-1.2v-14.5c0-0.1,0-0.2,0.1-0.3s0.2-0.1,0.3-0.1h2.2c0.1,0,0.2,0,0.3,0.1s0.1,0.2,0.1,0.3v5.1c0,0.1,0,0.1,0.1,0.1
            s0.1,0,0.1-0.1L179.8-16z M188.3-13c0-0.1-0.1-0.2-0.2-0.2h-2.2c-0.1,0-0.2,0-0.3-0.1s-0.1-0.2-0.1-0.3v-2.1c0-0.1,0-0.2,0.1-0.3
            c0.1-0.1,0.2-0.1,0.3-0.1h7.9c0.1,0,0.2,0,0.3,0.1s0.1,0.2,0.1,0.3v2.1c0,0.1,0,0.2-0.1,0.3s-0.2,0.1-0.3,0.1h-2.2
            c-0.1,0-0.2,0.1-0.2,0.2v9c0,0.1,0.1,0.2,0.2,0.2h2.4c0.1,0,0.2,0,0.3,0.1s0.1,0.2,0.1,0.3v2.1c0,0.1,0,0.2-0.1,0.3
            c-0.1,0.1-0.2,0.1-0.3,0.1h-8.4c-0.1,0-0.2,0-0.3-0.1s-0.1-0.2-0.1-0.3v-2.1c0-0.1,0-0.2,0.1-0.3s0.2-0.1,0.3-0.1h2.4
            c0.1,0,0.2-0.1,0.2-0.2v-9H188.3z M206.9-1.2c0,0.1,0,0.2-0.1,0.3s-0.2,0.1-0.3,0.1h-2.6c-0.2,0-0.3,0-0.4-0.1
            c-0.1-0.1-0.1-0.2-0.2-0.3l-3-7.7c0-0.1-0.1-0.1-0.1-0.1c-0.1,0-0.1,0.1-0.1,0.1v7.6c0,0.1,0,0.2-0.1,0.3s-0.2,0.1-0.3,0.1h-2.2
            c-0.1,0-0.2,0-0.3-0.1s-0.1-0.2-0.1-0.3v-14.5c0-0.1,0-0.2,0.1-0.3c0.1-0.1,0.2-0.1,0.3-0.1h2.6c0.2,0,0.3,0,0.4,0.1
            s0.1,0.2,0.2,0.3l3,8.4c0,0.1,0.1,0.1,0.1,0.1c0.1,0,0.1-0.1,0.1-0.1v-8.3c0-0.1,0-0.2,0.1-0.3c0.1-0.1,0.2-0.1,0.3-0.1h2.2
            c0.1,0,0.2,0,0.3,0.1s0.1,0.2,0.1,0.3V-1.2z"/>
    </g>
</g>
<path class="st0" d="M14.3,16.2H9.8v-0.4h1.4v-9c-0.3,0-0.6,0-1,0C9.6,8.5,9,10,8.7,10.7c-1,2.6-3.5,4.2-5.8,3.1
    c-1.5-0.7-1.5-2.7-0.8-4.1C2.7,8.5,3.6,7.9,4.4,8l0,0l0,0c0.4,0,0.7,0.3,0.7,0.7S4.8,9.4,4.4,9.4c-0.3,0-0.6-0.2-0.7-0.5
    C3.4,8.9,3,9.3,2.6,10c-0.5,0.9-0.6,2.9,0.6,3.5c1.4,0.7,3.3,0,4.6-3.1c0.7-1.7,1.1-2.7,1.4-3.5c-0.7,0-1.4,0-1.9,0
    c0-0.2,0.1-0.3,0.1-0.4c0,0,0.8,0,1.9,0c0.1-0.4,0.3-0.6,0.4-0.9c0.5-1,1.5-2.2,2.5-2.4c-1-0.3-2.4-0.8-3.8-1.3
    C6,1.1,4.3,1.7,3.4,2.6C2.5,3.4,2.5,5,3.3,5.8c1,0.9,2.3,0.3,2.8-0.1c0.7-0.6,0.8-1,0.9-1.1c0,0,0.1,0,0,0.3c-1,2-3,2.2-4.1,1.4
    C2,5.6,1.8,4,3.1,2.4C4.5,0.8,6.6,0.7,8,1c1,0.2,2.2,0.8,4.5,1.7c2.6,1.1,4,0.3,4,0.3c-0.7,0.9-2.2,0.7-3.1,0.5
    c-0.2,0-0.5-0.1-0.9-0.2c-0.2,0.1-1.1,0.6-1.9,2.4c-0.1,0.3-0.2,0.5-0.3,0.8h3.9v0.4h-1.4v9h1.4L14.3,16.2L14.3,16.2z M15.6,16.2
    v-0.4h1l-3.5-4.9l0,0l3.4-3.7C16.6,7.1,16.6,7,16.6,7c0-0.1-0.1-0.2-0.3-0.2h-0.7V6.4H19v0.4h-0.7c-0.6,0-1.1,0.2-1.3,0.5L14.5,10
    l4.2,5.8H20v0.4H15.6z"/>
</svg>
