<?xml version="1.0" encoding="UTF-8"?>
<svg width="160px" height="31px" viewBox="0 0 160 31" version="1.1" xmlns="http://www.w3.org/2000/svg" xmlns:xlink="http://www.w3.org/1999/xlink">
    <!-- Generator: Sketch 52.5 (67469) - http://www.bohemiancoding.com/sketch -->
    <title>LOGO</title>
    <desc>Created with Sketch.</desc>
    <defs>
        <polygon id="path-1" points="0 0.0391351061 30.1175707 0.0391351061 30.1175707 29.9756594 0 29.9756594"></polygon>
        <polygon id="path-3" points="0.319623037 0.0391351061 30.4373194 0.0391351061 30.4373194 29.9755761 0.319623037 29.9755761"></polygon>
        <polygon id="path-5" points="0 30.3531467 159.860942 30.3531467 159.860942 0.416455815 0 0.416455815"></polygon>
    </defs>
    <g id="Page-1" stroke="none" stroke-width="1" fill="none" fill-rule="evenodd">
        <g id="WORK-LP_DETAIL-RED" transform="translate(-1098.000000, -41.000000)">
            <g id="LOGO" transform="translate(1098.000000, 41.000000)">
                <g id="Group-12">
                    <g id="Group-3" transform="translate(0.000000, 0.377321)">
                        <mask id="mask-2" fill="white">
                            <use xlink:href="#path-1"></use>
                        </mask>
                        <g id="Clip-2"></g>
                        <path d="M25.6002932,17.8766667 C25.6002932,17.3770696 25.181445,16.9615713 24.6796649,16.9615713 L5.43819895,16.9615713 C4.93558115,16.9615713 4.51757068,17.3770696 4.51757068,17.8766667 L4.51757068,24.5704351 C4.51757068,25.0691996 4.93558115,25.4855305 5.43819895,25.4855305 L24.6796649,25.4855305 C25.181445,25.4855305 25.6002932,25.0691996 25.6002932,24.5704351 L25.6002932,17.8766667 Z M5.43819895,4.52951383 C4.93558115,4.52951383 4.51757068,4.94501209 4.51757068,5.44460919 L4.51757068,11.556347 C4.51757068,12.0555278 4.93558115,12.4714424 5.43819895,12.4714424 L23.4247958,12.4714424 C23.9265759,12.4714424 24.3445864,12.0555278 24.3445864,11.556347 L24.3445864,5.44460919 C24.3445864,4.94501209 23.9265759,4.52951383 23.4247958,4.52951383 L5.43819895,4.52951383 Z M30.1175707,17.8766667 L30.1175707,24.5704351 C30.1175707,27.5638544 27.6911832,29.9756594 24.6796649,29.9756594 L-0.00012565445,29.9756594 L-0.00012565445,0.0389685737 L23.4247958,0.0389685737 C26.4363141,0.0389685737 28.8631204,2.45077357 28.8631204,5.44460919 L28.8631204,11.556347 C28.8631204,12.3881762 28.6541152,13.1779559 28.3190366,13.8848858 C29.4063665,14.841198 30.1175707,16.2962745 30.1175707,17.8766667 Z" id="Fill-1" fill="#FEFEFE" mask="url(#mask-2)"></path>
                    </g>
                    <path d="M64.5445445,15.3848012 L64.5445445,5.8216801 C64.5445445,5.32249933 64.126534,4.90700107 63.6243351,4.90700107 L44.3824503,4.90700107 C43.8806702,4.90700107 43.4626597,5.32249933 43.4626597,5.8216801 L43.4626597,15.3848012 L64.5445445,15.3848012 Z M63.6243351,0.416455815 C66.6362723,0.416455815 69.0622408,2.82784448 69.0622408,5.8216801 L69.0622408,30.3531467 L64.5445445,30.3531467 L64.5445445,19.8753465 L43.4626597,19.8753465 L43.4626597,30.3531467 L38.9445445,30.3531467 L38.9445445,5.8216801 C38.9445445,2.82784448 41.3709319,0.416455815 44.3824503,0.416455815 L63.6243351,0.416455815 Z" id="Fill-4" fill="#FEFEFE"></path>
                    <g id="Group-8" transform="translate(77.486911, 0.377321)">
                        <mask id="mask-4" fill="white">
                            <use xlink:href="#path-3"></use>
                        </mask>
                        <g id="Clip-7"></g>
                        <path d="M24.9994136,12.7623744 L5.75794764,12.7623744 C5.25574869,12.7623744 4.83773822,12.3464598 4.83773822,11.8472791 L4.83773822,5.44452592 C4.83773822,4.94534515 5.25574869,4.52943057 5.75794764,4.52943057 L24.9994136,4.52943057 L25.0002513,4.53026323 L30.3543874,4.53026323 C29.9187853,1.97565673 27.6967958,0.0388853075 24.9994136,0.0388853075 L5.75794764,0.0388853075 C2.74601047,0.0388853075 0.319623037,2.4506903 0.319623037,5.44452592 L0.319623037,11.8472791 C0.319623037,14.8411147 2.74601047,17.2525034 5.75794764,17.2525034 L24.9994136,17.2525034 C25.5016126,17.2525034 25.919623,17.6680016 25.919623,18.1675987 L25.919623,24.5703519 C25.919623,25.0695326 25.5016126,25.4854472 24.9994136,25.4854472 L5.75794764,25.4854472 C5.75543455,25.4854472 5.75375916,25.4850309 5.75166492,25.4850309 L0.402554974,25.4850309 C0.838157068,28.0392211 3.06056545,29.9755761 5.75794764,29.9755761 L24.9994136,29.9755761 C28.0113508,29.9755761 30.4373194,27.5637712 30.4373194,24.5703519 L30.4373194,18.1675987 C30.4373194,15.1737631 28.0113508,12.7623744 24.9994136,12.7623744" id="Fill-6" fill="#FEFEFE" mask="url(#mask-4)"></path>
                    </g>
                    <mask id="mask-6" fill="white">
                        <use xlink:href="#path-5"></use>
                    </mask>
                    <g id="Clip-10"></g>
                    <polygon id="Fill-9" fill="#FEFEFE" mask="url(#mask-6)" points="116.626178 30.3531467 121.143874 30.3531467 121.143874 0.416455815 116.626178 0.416455815"></polygon>
                    <path d="M154.42266,13.1396951 L135.181194,13.1396951 C134.678995,13.1396951 134.260984,12.7237806 134.260984,12.2245998 L134.260984,5.82184663 C134.260984,5.32266586 134.678995,4.90675128 135.181194,4.90675128 L154.42266,4.90675128 L154.423497,4.90758394 L159.777634,4.90758394 C159.342031,2.35297744 157.120461,0.416206017 154.42266,0.416206017 L135.181194,0.416206017 C132.169675,0.416206017 129.742869,2.82801101 129.742869,5.82184663 L129.742869,12.2245998 C129.742869,15.2184354 132.169675,17.6298241 135.181194,17.6298241 L154.42266,17.6298241 C154.925277,17.6298241 155.343288,18.0453223 155.343288,18.5449194 L155.343288,24.9476726 C155.343288,25.4468533 154.925277,25.8627679 154.42266,25.8627679 L135.181194,25.8627679 C135.179099,25.8627679 135.177005,25.8623516 135.174911,25.8623516 L129.825801,25.8623516 C130.261403,28.4165418 132.483812,30.3528969 135.181194,30.3528969 L154.42266,30.3528969 C157.434597,30.3528969 159.860565,27.9410919 159.860565,24.9476726 L159.860565,18.5449194 C159.860565,15.5510838 157.434597,13.1396951 154.42266,13.1396951" id="Fill-11" fill="#FEFEFE" mask="url(#mask-6)"></path>
                </g>
            </g>
        </g>
    </g>
</svg>